<svg width="89" height="24" viewBox="0 0 89 24" fill="none" xmlns="http://www.w3.org/2000/svg">
<g clip-path="url(#clip0_4278_115072)">
<path d="M85.9533 3.24743V2.04743H85.5133V1.90625H86.6866V2.04743H86.2466V3.24743H85.9533Z" fill="#010101"/>
<path d="M86.9066 3.24721V1.83545H87.2L87.5666 2.82368C87.5666 2.89427 87.64 2.96486 87.64 3.03545C87.64 2.96486 87.7133 2.89427 87.7133 2.82368L88.08 1.83545H88.3V3.24721H88.1533V2.1178L87.7133 3.24721H87.4933L87.0533 2.04721V3.24721H86.9066Z" fill="#010101"/>
<path d="M86.9066 4.51788C85.8066 4.51788 84.8533 3.67082 84.8533 2.54141C84.8533 1.48259 85.7333 0.564941 86.9066 0.564941C88.0066 0.564941 88.96 1.412 88.96 2.54141C88.96 3.60024 88.08 4.51788 86.9066 4.51788ZM86.9066 0.776706C85.88 0.776706 85.0733 1.55318 85.0733 2.54141C85.0733 3.52965 85.88 4.30612 86.9066 4.30612C87.9333 4.30612 88.74 3.52965 88.74 2.54141C88.8133 1.55318 87.9333 0.776706 86.9066 0.776706Z" fill="#010101"/>
<path d="M48.4066 6.56516C48.7733 3.52986 46.4266 2.25928 43.42 2.25928C42.0266 2.25928 35.5733 2.25928 35.5733 2.25928L30.9533 18.4946H35.94L37.3333 13.4828H41.2933C41.2933 13.5534 47.4533 13.8357 48.4066 6.56516ZM43.2733 8.18869C42.6133 9.95339 40.8533 9.74163 40.8533 9.74163H38.4333L39.3866 6.28281C39.3866 6.28281 40.9266 6.28281 41.9533 6.28281C43.1266 6.28281 43.64 7.27104 43.2733 8.18869Z" fill="#2F2F85"/>
<path d="M19.88 6.77686H24.4266L22.52 13.6945C22.52 13.6945 22.08 15.2474 23.5466 15.3886C24.72 15.4592 25.6 14.118 25.8933 13.2004C26.26 12.0004 27.7266 6.77686 27.7266 6.77686H32.4933L28.9 18.5651H24.7933L25.3066 16.871C25.3066 16.871 23.2533 19.3416 20.1 19.0592C17.3133 18.7769 17.0933 16.871 17.6066 14.471C17.9 13.271 19.88 6.77686 19.88 6.77686Z" fill="#2F2F85"/>
<path d="M59.4066 12.7063C59.9933 10.7298 60.7266 8.89454 60.14 7.83572C59.1866 6.28278 57.5 6.1416 55.08 6.1416C52.3666 6.1416 48.9933 6.63572 47.8933 10.0945C49.58 10.0945 52.44 10.0945 52.44 10.0945C52.44 10.0945 52.88 8.75337 54.5666 8.89454C56.1066 8.96513 55.96 9.95337 55.4466 10.5181C54.4933 11.5063 51.78 10.9416 48.7733 11.9298C46.1333 12.7769 45.2533 16.0945 45.84 17.4357C46.3533 18.7063 47.38 18.8475 48.7733 18.9887C50.9733 19.2004 52.66 18.0004 53.4666 17.2945C53.4666 18.071 53.4666 18.4945 53.4666 18.4945H58.2333V18.071C58.2333 18.071 57.7933 17.9298 57.8666 17.3651C57.94 17.0122 58.7466 14.9651 59.4066 12.7063ZM52.5866 16.1651C51.78 16.3769 50.9 16.4475 50.68 15.8122C50.1666 13.9769 54.7133 13.4122 54.7133 13.4122C54.7133 15.0357 53.1733 16.024 52.5866 16.1651Z" fill="#2F2F85"/>
<path d="M18.78 6.07104C19.1466 3.03575 16.4333 2.25928 13.4266 2.25928C12.0333 2.25928 5.57996 2.25928 5.57996 2.25928L0.959961 18.5652H5.94663L7.48663 13.0593H10.2733C10.2733 13.0593 11.4466 12.9887 11.4466 14.0475C11.4466 15.1769 10.5666 17.224 10.64 18.5652C11.3 18.5652 15.7733 18.5652 15.7733 18.5652V18.1416C15.7733 18.1416 15.3333 18.0005 15.4066 17.4357C15.4066 17.224 15.7 16.4475 16.0666 15.3887C16.2866 14.9652 16.58 13.8357 16.58 12.9887C16.5066 11.9299 15.8466 11.3652 14.82 11.0122C17.9733 10.3769 18.78 6.07104 18.78 6.07104ZM13.5 8.18869C12.84 9.60045 10.86 9.45928 10.86 9.45928H8.51329L9.39329 6.42398C9.39329 6.42398 11.4466 6.42398 12.4733 6.42398C13.5733 6.35339 13.94 7.20045 13.5 8.18869Z" fill="#2F2F85"/>
<path d="M61.6066 6.77686H66.2266V13.8357L70.26 6.77686H74.5133L65.9333 21.0357C65.9333 21.0357 65.1266 22.2357 64.1733 22.871C63.3666 23.3651 62.34 23.3651 62.0466 23.3651C60.36 23.3651 58.3066 23.3651 58.3066 23.3651L59.26 19.9769H60.8733C60.8733 19.9769 61.6066 19.9063 61.9 19.5533C62.1933 19.2004 62.34 18.918 62.34 18.4239C62.2666 17.718 61.6066 6.77686 61.6066 6.77686Z" fill="#2F2F85"/>
<path d="M80.38 4.02393L75.1 21.8827L85.0733 12.9886L80.38 4.02393Z" fill="#0F8147"/>
<path d="M77.0066 4.02393L71.6533 21.8827L81.6266 12.9886L77.0066 4.02393Z" fill="#EF7422"/>
</g>
<defs>
<clipPath id="clip0_4278_115072">
<rect width="88" height="24" fill="white" transform="translate(0.959961)"/>
</clipPath>
</defs>
</svg>
