<svg width="91" height="24" viewBox="0 0 91 24" fill="none" xmlns="http://www.w3.org/2000/svg">
<g clip-path="url(#clip0_4278_115067)">
<path fill-rule="evenodd" clip-rule="evenodd" d="M77.4647 23.0571L90.3545 11.8585L84.2489 0.273368L77.4647 23.0571Z" fill="#097939"/>
<path fill-rule="evenodd" clip-rule="evenodd" d="M73.1231 23.0571L86.0129 11.8585L79.9073 0.273368L73.1231 23.0571Z" fill="#ED752E"/>
<path fill-rule="evenodd" clip-rule="evenodd" d="M11.5235 0.402826L6.09646 18.81L25.3628 18.9385L30.6548 0.402826H35.5391L29.1941 21.9514C28.9511 22.7743 28.0259 23.4428 27.1286 23.4428H2.43346C0.935858 23.4428 0.0484569 22.3285 0.453457 20.9571L6.50506 0.402826H11.5235ZM71.0873 0.274254H75.9715L69.1873 23.4428H64.1654L71.0873 0.274254ZM36.0827 9.9274L60.5051 9.79883L62.134 4.90711H37.3031L38.7953 0.401969L65.2552 0.17054C66.9023 0.155968 67.8833 1.37054 67.4495 2.88511L64.9565 11.5628C64.5218 13.0765 62.8325 14.3031 61.1855 14.3031H39.3389L36.7631 23.8285H32.0111L36.0827 9.9274Z" fill="#747474"/>
</g>
<defs>
<clipPath id="clip0_4278_115067">
<rect width="90" height="24" fill="white" transform="translate(0.354492)"/>
</clipPath>
</defs>
</svg>
